<mxfile host="app.diagrams.net" agent="Mozilla/5.0 (X11; Ubuntu; Linux x86_64; rv:138.0) Gecko/20100101 Firefox/138.0" version="27.0.6">
  <diagram name="Página-1" id="QDdl0CwlT6QDyC8VO9Wc">
    <mxGraphModel grid="0" page="0" gridSize="10" guides="1" tooltips="1" connect="1" arrows="1" fold="1" pageScale="1" pageWidth="1169" pageHeight="827" math="0" shadow="0">
      <root>
        <mxCell id="0" />
        <mxCell id="1" parent="0" />
        <mxCell id="bWxZ85PLtoG299pzbVER-10" value="&lt;div&gt;Cinema&lt;/div&gt;" style="whiteSpace=wrap;html=1;align=center;" vertex="1" parent="1">
          <mxGeometry x="1085" y="523" width="100" height="40" as="geometry" />
        </mxCell>
        <mxCell id="bWxZ85PLtoG299pzbVER-11" value="Sessão" style="whiteSpace=wrap;html=1;align=center;" vertex="1" parent="1">
          <mxGeometry x="21" y="523" width="100" height="40" as="geometry" />
        </mxCell>
        <mxCell id="bWxZ85PLtoG299pzbVER-12" value="Filme" style="whiteSpace=wrap;html=1;align=center;" vertex="1" parent="1">
          <mxGeometry x="18" y="858" width="100" height="40" as="geometry" />
        </mxCell>
        <mxCell id="bWxZ85PLtoG299pzbVER-17" value="Exibido" style="shape=rhombus;perimeter=rhombusPerimeter;whiteSpace=wrap;html=1;align=center;" vertex="1" parent="1">
          <mxGeometry x="11" y="673" width="120" height="60" as="geometry" />
        </mxCell>
        <mxCell id="bWxZ85PLtoG299pzbVER-20" value="Passada em" style="shape=rhombus;perimeter=rhombusPerimeter;whiteSpace=wrap;html=1;align=center;" vertex="1" parent="1">
          <mxGeometry x="359" y="513" width="120" height="60" as="geometry" />
        </mxCell>
        <mxCell id="5nTaTcytgDCQi_oFWqwc-5" value="&lt;div&gt;Endereco&lt;br&gt;&lt;/div&gt;" style="ellipse;whiteSpace=wrap;html=1;align=center;" vertex="1" parent="1">
          <mxGeometry x="1205" y="527" width="100" height="40" as="geometry" />
        </mxCell>
        <mxCell id="5nTaTcytgDCQi_oFWqwc-8" value="" style="endArrow=none;html=1;rounded=0;exitX=0;exitY=0.5;exitDx=0;exitDy=0;" edge="1" parent="1" source="5nTaTcytgDCQi_oFWqwc-5" target="bWxZ85PLtoG299pzbVER-10">
          <mxGeometry relative="1" as="geometry">
            <mxPoint x="1125" y="683" as="sourcePoint" />
            <mxPoint x="1185" y="523" as="targetPoint" />
          </mxGeometry>
        </mxCell>
        <mxCell id="5nTaTcytgDCQi_oFWqwc-12" value="Telefone" style="ellipse;whiteSpace=wrap;html=1;align=center;" vertex="1" parent="1">
          <mxGeometry x="1197" y="431" width="100" height="40" as="geometry" />
        </mxCell>
        <mxCell id="5nTaTcytgDCQi_oFWqwc-21" value="" style="endArrow=none;html=1;rounded=0;exitX=0.5;exitY=1;exitDx=0;exitDy=0;entryX=1;entryY=0;entryDx=0;entryDy=0;" edge="1" parent="1" source="5nTaTcytgDCQi_oFWqwc-12" target="bWxZ85PLtoG299pzbVER-10">
          <mxGeometry relative="1" as="geometry">
            <mxPoint x="1125" y="683" as="sourcePoint" />
            <mxPoint x="1185" y="543" as="targetPoint" />
          </mxGeometry>
        </mxCell>
        <mxCell id="5nTaTcytgDCQi_oFWqwc-22" value="" style="endArrow=none;html=1;rounded=0;entryX=0.5;entryY=0;entryDx=0;entryDy=0;" edge="1" parent="1" source="5nTaTcytgDCQi_oFWqwc-26" target="bWxZ85PLtoG299pzbVER-10">
          <mxGeometry relative="1" as="geometry">
            <mxPoint x="1055" y="563" as="sourcePoint" />
            <mxPoint x="1095" y="573" as="targetPoint" />
          </mxGeometry>
        </mxCell>
        <mxCell id="5nTaTcytgDCQi_oFWqwc-23" value="" style="endArrow=none;html=1;rounded=0;exitX=0.5;exitY=0;exitDx=0;exitDy=0;entryX=0.5;entryY=1;entryDx=0;entryDy=0;" edge="1" parent="1" source="VgD3vfv93HL01cFdNhuE-11" target="5nTaTcytgDCQi_oFWqwc-5">
          <mxGeometry relative="1" as="geometry">
            <mxPoint x="1325" y="583" as="sourcePoint" />
            <mxPoint x="1285" y="683" as="targetPoint" />
            <Array as="points" />
          </mxGeometry>
        </mxCell>
        <mxCell id="5nTaTcytgDCQi_oFWqwc-26" value="&lt;div&gt;CNPJ&lt;/div&gt;" style="ellipse;whiteSpace=wrap;html=1;align=center;fontStyle=4;" vertex="1" parent="1">
          <mxGeometry x="1085" y="431" width="100" height="40" as="geometry" />
        </mxCell>
        <mxCell id="5nTaTcytgDCQi_oFWqwc-29" value="Título" style="ellipse;whiteSpace=wrap;html=1;align=center;fontStyle=4;" vertex="1" parent="1">
          <mxGeometry x="-185.5" y="838" width="100" height="40" as="geometry" />
        </mxCell>
        <mxCell id="5nTaTcytgDCQi_oFWqwc-33" value="&lt;div&gt;Classificação&lt;/div&gt;&lt;div&gt;Indicativa&lt;br&gt;&lt;/div&gt;" style="ellipse;whiteSpace=wrap;html=1;align=center;" vertex="1" parent="1">
          <mxGeometry x="-121" y="966" width="100" height="40" as="geometry" />
        </mxCell>
        <mxCell id="5nTaTcytgDCQi_oFWqwc-37" value="Idioma" style="ellipse;whiteSpace=wrap;html=1;align=center;" vertex="1" parent="1">
          <mxGeometry x="161" y="975" width="100" height="40" as="geometry" />
        </mxCell>
        <mxCell id="5nTaTcytgDCQi_oFWqwc-38" value="Duração" style="ellipse;whiteSpace=wrap;html=1;align=center;" vertex="1" parent="1">
          <mxGeometry x="208" y="935" width="100" height="40" as="geometry" />
        </mxCell>
        <mxCell id="5nTaTcytgDCQi_oFWqwc-39" value="" style="endArrow=none;html=1;rounded=0;entryX=0;entryY=0;entryDx=0;entryDy=0;exitX=1;exitY=0.5;exitDx=0;exitDy=0;" edge="1" parent="1" source="5nTaTcytgDCQi_oFWqwc-29" target="bWxZ85PLtoG299pzbVER-12">
          <mxGeometry relative="1" as="geometry">
            <mxPoint x="-53" y="858" as="sourcePoint" />
            <mxPoint x="-82" y="727.5" as="targetPoint" />
          </mxGeometry>
        </mxCell>
        <mxCell id="5nTaTcytgDCQi_oFWqwc-40" value="" style="endArrow=none;html=1;rounded=0;entryX=0;entryY=0.5;entryDx=0;entryDy=0;" edge="1" parent="1" target="bWxZ85PLtoG299pzbVER-12">
          <mxGeometry relative="1" as="geometry">
            <mxPoint x="-88.75514506116701" y="902.9610158177711" as="sourcePoint" />
            <mxPoint x="178" y="688" as="targetPoint" />
          </mxGeometry>
        </mxCell>
        <mxCell id="5nTaTcytgDCQi_oFWqwc-41" value="" style="endArrow=none;html=1;rounded=0;exitX=1;exitY=0;exitDx=0;exitDy=0;entryX=0.147;entryY=0.997;entryDx=0;entryDy=0;entryPerimeter=0;" edge="1" parent="1" source="GmGQLsGv_CHL2gcQ2E9P-15" target="bWxZ85PLtoG299pzbVER-12">
          <mxGeometry relative="1" as="geometry">
            <mxPoint x="-6.644660940672566" y="943.8578643762689" as="sourcePoint" />
            <mxPoint x="18" y="898" as="targetPoint" />
          </mxGeometry>
        </mxCell>
        <mxCell id="5nTaTcytgDCQi_oFWqwc-44" value="" style="endArrow=none;html=1;rounded=0;entryX=0;entryY=0.5;entryDx=0;entryDy=0;" edge="1" parent="1" source="bWxZ85PLtoG299pzbVER-12" target="5nTaTcytgDCQi_oFWqwc-37">
          <mxGeometry relative="1" as="geometry">
            <mxPoint x="18" y="688" as="sourcePoint" />
            <mxPoint x="178" y="688" as="targetPoint" />
          </mxGeometry>
        </mxCell>
        <mxCell id="5nTaTcytgDCQi_oFWqwc-45" value="" style="endArrow=none;html=1;rounded=0;entryX=0;entryY=0.5;entryDx=0;entryDy=0;" edge="1" parent="1" source="bWxZ85PLtoG299pzbVER-12" target="5nTaTcytgDCQi_oFWqwc-38">
          <mxGeometry relative="1" as="geometry">
            <mxPoint x="118" y="873" as="sourcePoint" />
            <mxPoint x="178" y="688" as="targetPoint" />
          </mxGeometry>
        </mxCell>
        <mxCell id="5nTaTcytgDCQi_oFWqwc-46" value="" style="endArrow=none;html=1;rounded=0;entryX=0.5;entryY=0;entryDx=0;entryDy=0;" edge="1" parent="1" source="bWxZ85PLtoG299pzbVER-12" target="JfyTi-tfxPYS8PUdpwXH-25">
          <mxGeometry relative="1" as="geometry">
            <mxPoint x="78" y="898" as="sourcePoint" />
            <mxPoint x="68" y="1003" as="targetPoint" />
          </mxGeometry>
        </mxCell>
        <mxCell id="5nTaTcytgDCQi_oFWqwc-48" value="" style="endArrow=none;html=1;rounded=0;exitX=0.5;exitY=1;exitDx=0;exitDy=0;entryX=0.5;entryY=0;entryDx=0;entryDy=0;" edge="1" parent="1" source="bWxZ85PLtoG299pzbVER-11" target="bWxZ85PLtoG299pzbVER-17">
          <mxGeometry relative="1" as="geometry">
            <mxPoint x="31" y="653" as="sourcePoint" />
            <mxPoint x="191" y="653" as="targetPoint" />
          </mxGeometry>
        </mxCell>
        <mxCell id="5nTaTcytgDCQi_oFWqwc-49" value="" style="endArrow=none;html=1;rounded=0;exitX=0.5;exitY=1;exitDx=0;exitDy=0;entryX=0.5;entryY=0;entryDx=0;entryDy=0;" edge="1" parent="1" source="bWxZ85PLtoG299pzbVER-17" target="bWxZ85PLtoG299pzbVER-12">
          <mxGeometry relative="1" as="geometry">
            <mxPoint x="31" y="653" as="sourcePoint" />
            <mxPoint x="191" y="653" as="targetPoint" />
          </mxGeometry>
        </mxCell>
        <mxCell id="5nTaTcytgDCQi_oFWqwc-52" value="" style="endArrow=none;html=1;rounded=0;exitX=1;exitY=0.5;exitDx=0;exitDy=0;entryX=0;entryY=0.5;entryDx=0;entryDy=0;" edge="1" parent="1" source="bWxZ85PLtoG299pzbVER-11" target="bWxZ85PLtoG299pzbVER-20">
          <mxGeometry relative="1" as="geometry">
            <mxPoint x="27" y="753" as="sourcePoint" />
            <mxPoint x="241" y="643" as="targetPoint" />
          </mxGeometry>
        </mxCell>
        <mxCell id="5nTaTcytgDCQi_oFWqwc-53" value="" style="endArrow=none;html=1;rounded=0;exitX=1;exitY=0.5;exitDx=0;exitDy=0;entryX=0;entryY=0.5;entryDx=0;entryDy=0;" edge="1" parent="1" source="bWxZ85PLtoG299pzbVER-20" target="XigQLLr4K7YTHGexGEPw-5">
          <mxGeometry relative="1" as="geometry">
            <mxPoint x="145" y="653" as="sourcePoint" />
            <mxPoint x="605" y="543" as="targetPoint" />
          </mxGeometry>
        </mxCell>
        <mxCell id="5nTaTcytgDCQi_oFWqwc-57" value="suporta3D" style="ellipse;whiteSpace=wrap;html=1;align=center;" vertex="1" parent="1">
          <mxGeometry x="675" y="673" width="100" height="40" as="geometry" />
        </mxCell>
        <mxCell id="5nTaTcytgDCQi_oFWqwc-58" value="suportaIMAX" style="ellipse;whiteSpace=wrap;html=1;align=center;" vertex="1" parent="1">
          <mxGeometry x="575" y="673" width="100" height="40" as="geometry" />
        </mxCell>
        <mxCell id="5nTaTcytgDCQi_oFWqwc-64" value="é3D" style="ellipse;whiteSpace=wrap;html=1;align=center;" vertex="1" parent="1">
          <mxGeometry x="-171.5" y="518" width="100" height="40" as="geometry" />
        </mxCell>
        <mxCell id="5nTaTcytgDCQi_oFWqwc-66" value="Legendado ou Dublado" style="ellipse;whiteSpace=wrap;html=1;align=center;" vertex="1" parent="1">
          <mxGeometry x="-95.5" y="453" width="110" height="50" as="geometry" />
        </mxCell>
        <mxCell id="5nTaTcytgDCQi_oFWqwc-68" value="" style="endArrow=none;html=1;rounded=0;entryX=0;entryY=0.5;entryDx=0;entryDy=0;" edge="1" parent="1" source="GmGQLsGv_CHL2gcQ2E9P-23" target="bWxZ85PLtoG299pzbVER-11">
          <mxGeometry relative="1" as="geometry">
            <mxPoint x="-89" y="573" as="sourcePoint" />
            <mxPoint x="141" y="653" as="targetPoint" />
          </mxGeometry>
        </mxCell>
        <mxCell id="5nTaTcytgDCQi_oFWqwc-69" value="" style="endArrow=none;html=1;rounded=0;exitX=1;exitY=1;exitDx=0;exitDy=0;entryX=0.25;entryY=0;entryDx=0;entryDy=0;" edge="1" parent="1" source="5nTaTcytgDCQi_oFWqwc-66" target="bWxZ85PLtoG299pzbVER-11">
          <mxGeometry relative="1" as="geometry">
            <mxPoint x="-19" y="653" as="sourcePoint" />
            <mxPoint x="141" y="653" as="targetPoint" />
          </mxGeometry>
        </mxCell>
        <mxCell id="5nTaTcytgDCQi_oFWqwc-71" value="" style="endArrow=none;html=1;rounded=0;exitX=1;exitY=0.5;exitDx=0;exitDy=0;entryX=0;entryY=0.25;entryDx=0;entryDy=0;" edge="1" parent="1" source="5nTaTcytgDCQi_oFWqwc-64" target="bWxZ85PLtoG299pzbVER-11">
          <mxGeometry relative="1" as="geometry">
            <mxPoint x="-19" y="653" as="sourcePoint" />
            <mxPoint x="21" y="513" as="targetPoint" />
          </mxGeometry>
        </mxCell>
        <mxCell id="5nTaTcytgDCQi_oFWqwc-72" value="" style="endArrow=none;html=1;rounded=0;exitX=1;exitY=0;exitDx=0;exitDy=0;" edge="1" parent="1" source="GmGQLsGv_CHL2gcQ2E9P-24" target="bWxZ85PLtoG299pzbVER-11">
          <mxGeometry relative="1" as="geometry">
            <mxPoint x="-23.644660940672566" y="608.8578643762689" as="sourcePoint" />
            <mxPoint x="141" y="653" as="targetPoint" />
          </mxGeometry>
        </mxCell>
        <mxCell id="5nTaTcytgDCQi_oFWqwc-75" value="Poltrona" style="shape=ext;margin=3;double=1;whiteSpace=wrap;html=1;align=center;" vertex="1" parent="1">
          <mxGeometry x="605" y="343" width="100" height="40" as="geometry" />
        </mxCell>
        <mxCell id="5nTaTcytgDCQi_oFWqwc-78" value="" style="endArrow=none;html=1;rounded=0;" edge="1" parent="1" source="5nTaTcytgDCQi_oFWqwc-75" target="3_6rnmA6rE0Pt-P0YOCO-2">
          <mxGeometry relative="1" as="geometry">
            <mxPoint x="698" y="359" as="sourcePoint" />
            <mxPoint x="757.0000000000027" y="338.5" as="targetPoint" />
          </mxGeometry>
        </mxCell>
        <mxCell id="5nTaTcytgDCQi_oFWqwc-80" value="" style="endArrow=none;html=1;rounded=0;exitX=0.5;exitY=1;exitDx=0;exitDy=0;entryX=0.5;entryY=0;entryDx=0;entryDy=0;" edge="1" parent="1" source="5nTaTcytgDCQi_oFWqwc-75" target="GmGQLsGv_CHL2gcQ2E9P-21">
          <mxGeometry relative="1" as="geometry">
            <mxPoint x="85" y="433" as="sourcePoint" />
            <mxPoint x="655" y="418" as="targetPoint" />
          </mxGeometry>
        </mxCell>
        <mxCell id="5nTaTcytgDCQi_oFWqwc-81" value="" style="endArrow=none;html=1;rounded=0;exitX=0.5;exitY=1;exitDx=0;exitDy=0;entryX=0.5;entryY=0;entryDx=0;entryDy=0;" edge="1" parent="1" source="GmGQLsGv_CHL2gcQ2E9P-21">
          <mxGeometry relative="1" as="geometry">
            <mxPoint x="655" y="478" as="sourcePoint" />
            <mxPoint x="655" y="523" as="targetPoint" />
          </mxGeometry>
        </mxCell>
        <mxCell id="5nTaTcytgDCQi_oFWqwc-82" value="" style="endArrow=none;html=1;rounded=0;entryX=0.5;entryY=0;entryDx=0;entryDy=0;exitX=0.5;exitY=1;exitDx=0;exitDy=0;" edge="1" parent="1" target="5nTaTcytgDCQi_oFWqwc-58">
          <mxGeometry relative="1" as="geometry">
            <mxPoint x="655" y="563" as="sourcePoint" />
            <mxPoint x="245" y="433" as="targetPoint" />
          </mxGeometry>
        </mxCell>
        <mxCell id="5nTaTcytgDCQi_oFWqwc-84" value="" style="endArrow=none;html=1;rounded=0;exitX=0.5;exitY=0;exitDx=0;exitDy=0;entryX=0.59;entryY=0.975;entryDx=0;entryDy=0;entryPerimeter=0;" edge="1" parent="1" source="5nTaTcytgDCQi_oFWqwc-57">
          <mxGeometry relative="1" as="geometry">
            <mxPoint x="85" y="433" as="sourcePoint" />
            <mxPoint x="664" y="562" as="targetPoint" />
          </mxGeometry>
        </mxCell>
        <mxCell id="5nTaTcytgDCQi_oFWqwc-85" value="" style="endArrow=none;html=1;rounded=0;exitX=0.75;exitY=1;exitDx=0;exitDy=0;" edge="1" parent="1" target="GmGQLsGv_CHL2gcQ2E9P-7">
          <mxGeometry relative="1" as="geometry">
            <mxPoint x="680" y="563" as="sourcePoint" />
            <mxPoint x="725" y="643" as="targetPoint" />
          </mxGeometry>
        </mxCell>
        <mxCell id="5nTaTcytgDCQi_oFWqwc-86" value="" style="endArrow=none;html=1;rounded=0;entryX=0.9;entryY=0.9;entryDx=0;entryDy=0;entryPerimeter=0;exitX=0;exitY=0.5;exitDx=0;exitDy=0;" edge="1" parent="1" source="KKWyHf_L7kKpsniGeiks-10">
          <mxGeometry relative="1" as="geometry">
            <mxPoint x="793" y="606" as="sourcePoint" />
            <mxPoint x="695" y="559" as="targetPoint" />
          </mxGeometry>
        </mxCell>
        <mxCell id="5nTaTcytgDCQi_oFWqwc-87" value="Cliente" style="whiteSpace=wrap;html=1;align=center;" vertex="1" parent="1">
          <mxGeometry x="443" y="1" width="100" height="40" as="geometry" />
        </mxCell>
        <mxCell id="5nTaTcytgDCQi_oFWqwc-88" value="Nome" style="ellipse;whiteSpace=wrap;html=1;align=center;" vertex="1" parent="1">
          <mxGeometry x="618" y="-69" width="100" height="40" as="geometry" />
        </mxCell>
        <mxCell id="5nTaTcytgDCQi_oFWqwc-89" value="CPF" style="ellipse;whiteSpace=wrap;html=1;align=center;fontStyle=4;" vertex="1" parent="1">
          <mxGeometry x="705" y="31" width="100" height="40" as="geometry" />
        </mxCell>
        <mxCell id="5nTaTcytgDCQi_oFWqwc-92" value="Compra" style="shape=rhombus;perimeter=rhombusPerimeter;whiteSpace=wrap;html=1;align=center;" vertex="1" parent="1">
          <mxGeometry x="433" y="191" width="120" height="60" as="geometry" />
        </mxCell>
        <mxCell id="5nTaTcytgDCQi_oFWqwc-93" value="" style="endArrow=none;html=1;rounded=0;" edge="1" parent="1" source="5nTaTcytgDCQi_oFWqwc-87" target="5nTaTcytgDCQi_oFWqwc-92">
          <mxGeometry relative="1" as="geometry">
            <mxPoint x="76" y="237" as="sourcePoint" />
            <mxPoint x="156" y="-63" as="targetPoint" />
          </mxGeometry>
        </mxCell>
        <mxCell id="5nTaTcytgDCQi_oFWqwc-97" value="Data" style="ellipse;whiteSpace=wrap;html=1;align=center;" vertex="1" parent="1">
          <mxGeometry x="308" y="241" width="100" height="40" as="geometry" />
        </mxCell>
        <mxCell id="5nTaTcytgDCQi_oFWqwc-99" value="Forma de Pagamento" style="ellipse;whiteSpace=wrap;html=1;align=center;" vertex="1" parent="1">
          <mxGeometry x="512" y="287" width="100" height="40" as="geometry" />
        </mxCell>
        <mxCell id="5nTaTcytgDCQi_oFWqwc-100" value="Hora" style="ellipse;whiteSpace=wrap;html=1;align=center;" vertex="1" parent="1">
          <mxGeometry x="381" y="283" width="100" height="40" as="geometry" />
        </mxCell>
        <mxCell id="5nTaTcytgDCQi_oFWqwc-104" value="" style="endArrow=none;html=1;rounded=0;" edge="1" parent="1" source="5nTaTcytgDCQi_oFWqwc-97" target="5nTaTcytgDCQi_oFWqwc-92">
          <mxGeometry relative="1" as="geometry">
            <mxPoint x="276" y="-191" as="sourcePoint" />
            <mxPoint x="575.9999999999995" y="-211" as="targetPoint" />
          </mxGeometry>
        </mxCell>
        <mxCell id="5nTaTcytgDCQi_oFWqwc-105" value="" style="endArrow=none;html=1;rounded=0;" edge="1" parent="1" source="5nTaTcytgDCQi_oFWqwc-100" target="5nTaTcytgDCQi_oFWqwc-92">
          <mxGeometry relative="1" as="geometry">
            <mxPoint x="276" y="-191" as="sourcePoint" />
            <mxPoint x="576" y="-211" as="targetPoint" />
          </mxGeometry>
        </mxCell>
        <mxCell id="5nTaTcytgDCQi_oFWqwc-106" value="" style="endArrow=none;html=1;rounded=0;" edge="1" parent="1" source="5nTaTcytgDCQi_oFWqwc-99" target="5nTaTcytgDCQi_oFWqwc-92">
          <mxGeometry relative="1" as="geometry">
            <mxPoint x="-8" y="-71" as="sourcePoint" />
            <mxPoint x="291.99999999999955" y="-91" as="targetPoint" />
          </mxGeometry>
        </mxCell>
        <mxCell id="5nTaTcytgDCQi_oFWqwc-110" value="Ingresso" style="whiteSpace=wrap;html=1;align=center;" vertex="1" parent="1">
          <mxGeometry x="24.5" y="201" width="100" height="40" as="geometry" />
        </mxCell>
        <mxCell id="5nTaTcytgDCQi_oFWqwc-112" value="Pertence" style="shape=rhombus;perimeter=rhombusPerimeter;whiteSpace=wrap;html=1;align=center;" vertex="1" parent="1">
          <mxGeometry x="14.5" y="330" width="120" height="60" as="geometry" />
        </mxCell>
        <mxCell id="5nTaTcytgDCQi_oFWqwc-115" value="" style="endArrow=none;html=1;rounded=0;exitX=0;exitY=0.5;exitDx=0;exitDy=0;entryX=1;entryY=0.5;entryDx=0;entryDy=0;" edge="1" parent="1" source="5nTaTcytgDCQi_oFWqwc-75" target="5nTaTcytgDCQi_oFWqwc-112">
          <mxGeometry relative="1" as="geometry">
            <mxPoint x="155" y="453" as="sourcePoint" />
            <mxPoint x="315" y="453" as="targetPoint" />
          </mxGeometry>
        </mxCell>
        <mxCell id="5nTaTcytgDCQi_oFWqwc-116" value="" style="endArrow=none;html=1;rounded=0;exitX=0.5;exitY=1;exitDx=0;exitDy=0;entryX=0.5;entryY=0;entryDx=0;entryDy=0;" edge="1" parent="1" source="5nTaTcytgDCQi_oFWqwc-110" target="5nTaTcytgDCQi_oFWqwc-112">
          <mxGeometry relative="1" as="geometry">
            <mxPoint x="105" y="453" as="sourcePoint" />
            <mxPoint x="285" y="383" as="targetPoint" />
          </mxGeometry>
        </mxCell>
        <mxCell id="5nTaTcytgDCQi_oFWqwc-117" value="" style="endArrow=none;html=1;rounded=0;" edge="1" parent="1" source="5nTaTcytgDCQi_oFWqwc-92" target="5nTaTcytgDCQi_oFWqwc-110">
          <mxGeometry relative="1" as="geometry">
            <mxPoint x="385" y="153" as="sourcePoint" />
            <mxPoint x="355" y="293" as="targetPoint" />
          </mxGeometry>
        </mxCell>
        <mxCell id="5nTaTcytgDCQi_oFWqwc-118" value="" style="endArrow=none;html=1;rounded=0;" edge="1" parent="1" source="5nTaTcytgDCQi_oFWqwc-88" target="5nTaTcytgDCQi_oFWqwc-87">
          <mxGeometry relative="1" as="geometry">
            <mxPoint x="-159" y="-83" as="sourcePoint" />
            <mxPoint x="306" y="117" as="targetPoint" />
          </mxGeometry>
        </mxCell>
        <mxCell id="5nTaTcytgDCQi_oFWqwc-119" value="" style="endArrow=none;html=1;rounded=0;" edge="1" parent="1" source="5nTaTcytgDCQi_oFWqwc-89" target="5nTaTcytgDCQi_oFWqwc-87">
          <mxGeometry relative="1" as="geometry">
            <mxPoint x="-154" y="-23" as="sourcePoint" />
            <mxPoint x="306" y="117" as="targetPoint" />
          </mxGeometry>
        </mxCell>
        <mxCell id="5nTaTcytgDCQi_oFWqwc-124" value="" style="endArrow=none;html=1;rounded=0;" edge="1" parent="1" source="5nTaTcytgDCQi_oFWqwc-110" target="-8X1UC5WCLzOcuRhwcVl-9">
          <mxGeometry relative="1" as="geometry">
            <mxPoint x="105" y="163" as="sourcePoint" />
            <mxPoint x="-10.285554762450374" y="248.34335444157023" as="targetPoint" />
          </mxGeometry>
        </mxCell>
        <mxCell id="-gXFaadkKccBYK3b72d8-2" value="Rua" style="ellipse;whiteSpace=wrap;html=1;align=center;" vertex="1" parent="1">
          <mxGeometry x="1312" y="475" width="100" height="40" as="geometry" />
        </mxCell>
        <mxCell id="-gXFaadkKccBYK3b72d8-4" value="Número" style="ellipse;whiteSpace=wrap;html=1;align=center;" vertex="1" parent="1">
          <mxGeometry x="1347.5" y="533" width="100" height="40" as="geometry" />
        </mxCell>
        <mxCell id="-gXFaadkKccBYK3b72d8-6" value="Complemento" style="ellipse;whiteSpace=wrap;html=1;align=center;" vertex="1" parent="1">
          <mxGeometry x="1342" y="586" width="100" height="40" as="geometry" />
        </mxCell>
        <mxCell id="-gXFaadkKccBYK3b72d8-9" value="" style="endArrow=none;html=1;rounded=0;" edge="1" parent="1" source="-gXFaadkKccBYK3b72d8-2" target="5nTaTcytgDCQi_oFWqwc-5">
          <mxGeometry relative="1" as="geometry">
            <mxPoint x="1145" y="298" as="sourcePoint" />
            <mxPoint x="1305" y="298" as="targetPoint" />
          </mxGeometry>
        </mxCell>
        <mxCell id="-gXFaadkKccBYK3b72d8-10" value="" style="endArrow=none;html=1;rounded=0;" edge="1" parent="1" source="-gXFaadkKccBYK3b72d8-4" target="5nTaTcytgDCQi_oFWqwc-5">
          <mxGeometry relative="1" as="geometry">
            <mxPoint x="1145" y="298" as="sourcePoint" />
            <mxPoint x="1305" y="298" as="targetPoint" />
          </mxGeometry>
        </mxCell>
        <mxCell id="-gXFaadkKccBYK3b72d8-12" value="" style="endArrow=none;html=1;rounded=0;exitX=1;exitY=1;exitDx=0;exitDy=0;" edge="1" parent="1" source="5nTaTcytgDCQi_oFWqwc-5" target="-gXFaadkKccBYK3b72d8-6">
          <mxGeometry relative="1" as="geometry">
            <mxPoint x="1145" y="298" as="sourcePoint" />
            <mxPoint x="1305" y="298" as="targetPoint" />
          </mxGeometry>
        </mxCell>
        <mxCell id="VgD3vfv93HL01cFdNhuE-2" value="" style="endArrow=none;html=1;rounded=0;" edge="1" parent="1">
          <mxGeometry relative="1" as="geometry">
            <mxPoint x="705" y="543" as="sourcePoint" />
            <mxPoint x="865" y="543" as="targetPoint" />
          </mxGeometry>
        </mxCell>
        <mxCell id="VgD3vfv93HL01cFdNhuE-3" value="" style="endArrow=none;html=1;rounded=0;exitX=0.978;exitY=0.49;exitDx=0;exitDy=0;entryX=0;entryY=0.5;entryDx=0;entryDy=0;exitPerimeter=0;" edge="1" parent="1" target="bWxZ85PLtoG299pzbVER-10">
          <mxGeometry relative="1" as="geometry">
            <mxPoint x="982.3600000000001" y="542.3999999999999" as="sourcePoint" />
            <mxPoint x="1045" y="583" as="targetPoint" />
          </mxGeometry>
        </mxCell>
        <mxCell id="GmGQLsGv_CHL2gcQ2E9P-4" value="" style="endArrow=none;html=1;rounded=0;entryX=0;entryY=0;entryDx=0;entryDy=0;" edge="1" parent="1" source="GmGQLsGv_CHL2gcQ2E9P-6" target="bWxZ85PLtoG299pzbVER-10">
          <mxGeometry relative="1" as="geometry">
            <mxPoint x="1215" y="673" as="sourcePoint" />
            <mxPoint x="1090" y="570" as="targetPoint" />
          </mxGeometry>
        </mxCell>
        <mxCell id="GmGQLsGv_CHL2gcQ2E9P-6" value="&lt;font&gt;Nome&lt;/font&gt;" style="ellipse;whiteSpace=wrap;html=1;align=center;fontStyle=4;" vertex="1" parent="1">
          <mxGeometry x="985" y="453" width="100" height="40" as="geometry" />
        </mxCell>
        <mxCell id="GmGQLsGv_CHL2gcQ2E9P-7" value="QTDE_Poltronas" style="ellipse;whiteSpace=wrap;html=1;align=center;dashed=1;" vertex="1" parent="1">
          <mxGeometry x="775" y="653" width="100" height="40" as="geometry" />
        </mxCell>
        <mxCell id="VgD3vfv93HL01cFdNhuE-6" value="Profundidade" style="ellipse;whiteSpace=wrap;html=1;align=center;" vertex="1" parent="1">
          <mxGeometry x="369" y="633" width="100" height="40" as="geometry" />
        </mxCell>
        <mxCell id="VgD3vfv93HL01cFdNhuE-7" value="Largura" style="ellipse;whiteSpace=wrap;html=1;align=center;" vertex="1" parent="1">
          <mxGeometry x="379" y="693" width="100" height="40" as="geometry" />
        </mxCell>
        <mxCell id="GmGQLsGv_CHL2gcQ2E9P-8" value="Tamanho" style="ellipse;whiteSpace=wrap;html=1;align=center;" vertex="1" parent="1">
          <mxGeometry x="485" y="643" width="100" height="40" as="geometry" />
        </mxCell>
        <mxCell id="VgD3vfv93HL01cFdNhuE-8" style="edgeStyle=orthogonalEdgeStyle;rounded=0;orthogonalLoop=1;jettySize=auto;html=1;exitX=1;exitY=0.5;exitDx=0;exitDy=0;entryX=0;entryY=0.5;entryDx=0;entryDy=0;" edge="1" parent="1" target="VgD3vfv93HL01cFdNhuE-6">
          <mxGeometry relative="1" as="geometry">
            <Array as="points">
              <mxPoint x="540" y="920" />
              <mxPoint x="560" y="920" />
              <mxPoint x="560" y="860" />
            </Array>
          </mxGeometry>
        </mxCell>
        <mxCell id="GmGQLsGv_CHL2gcQ2E9P-9" value="" style="endArrow=none;html=1;rounded=0;" edge="1" parent="1" source="GmGQLsGv_CHL2gcQ2E9P-8" target="VgD3vfv93HL01cFdNhuE-7">
          <mxGeometry relative="1" as="geometry">
            <mxPoint x="535" y="603" as="sourcePoint" />
            <mxPoint x="505" y="703" as="targetPoint" />
          </mxGeometry>
        </mxCell>
        <mxCell id="GmGQLsGv_CHL2gcQ2E9P-10" value="" style="endArrow=none;html=1;rounded=0;entryX=1;entryY=0.5;entryDx=0;entryDy=0;" edge="1" parent="1" source="GmGQLsGv_CHL2gcQ2E9P-8" target="VgD3vfv93HL01cFdNhuE-6">
          <mxGeometry relative="1" as="geometry">
            <mxPoint x="675" y="583" as="sourcePoint" />
            <mxPoint x="645" y="683" as="targetPoint" />
          </mxGeometry>
        </mxCell>
        <mxCell id="GmGQLsGv_CHL2gcQ2E9P-11" value="" style="endArrow=none;html=1;rounded=0;exitX=0.25;exitY=1;exitDx=0;exitDy=0;" edge="1" parent="1" target="GmGQLsGv_CHL2gcQ2E9P-8">
          <mxGeometry relative="1" as="geometry">
            <mxPoint x="630" y="563" as="sourcePoint" />
            <mxPoint x="655" y="693" as="targetPoint" />
          </mxGeometry>
        </mxCell>
        <mxCell id="GmGQLsGv_CHL2gcQ2E9P-13" value="Ano" style="ellipse;whiteSpace=wrap;html=1;align=center;" vertex="1" parent="1">
          <mxGeometry x="-182" y="880" width="100" height="40" as="geometry" />
        </mxCell>
        <mxCell id="GmGQLsGv_CHL2gcQ2E9P-15" value="Diretor" style="ellipse;whiteSpace=wrap;html=1;align=center;" vertex="1" parent="1">
          <mxGeometry x="-165" y="924" width="100" height="40" as="geometry" />
        </mxCell>
        <mxCell id="VgD3vfv93HL01cFdNhuE-11" value="CEP" style="ellipse;whiteSpace=wrap;html=1;align=center;" vertex="1" parent="1">
          <mxGeometry x="1238" y="603" width="100" height="40" as="geometry" />
        </mxCell>
        <mxCell id="GmGQLsGv_CHL2gcQ2E9P-17" value="" style="endArrow=none;html=1;rounded=0;" edge="1" parent="1" source="5nTaTcytgDCQi_oFWqwc-75" target="3_6rnmA6rE0Pt-P0YOCO-1">
          <mxGeometry relative="1" as="geometry">
            <mxPoint x="715" y="383" as="sourcePoint" />
            <mxPoint x="765.1059859875259" y="394.281288191268" as="targetPoint" />
          </mxGeometry>
        </mxCell>
        <mxCell id="GmGQLsGv_CHL2gcQ2E9P-18" value="Fim de contrato" style="ellipse;whiteSpace=wrap;html=1;align=center;" vertex="1" parent="1">
          <mxGeometry x="238" y="851" width="100" height="40" as="geometry" />
        </mxCell>
        <mxCell id="GmGQLsGv_CHL2gcQ2E9P-19" value="" style="endArrow=none;html=1;rounded=0;entryX=0;entryY=0.5;entryDx=0;entryDy=0;exitX=1;exitY=0;exitDx=0;exitDy=0;" edge="1" parent="1" source="bWxZ85PLtoG299pzbVER-12" target="GmGQLsGv_CHL2gcQ2E9P-18">
          <mxGeometry relative="1" as="geometry">
            <mxPoint x="218" y="863" as="sourcePoint" />
            <mxPoint x="228" y="868" as="targetPoint" />
          </mxGeometry>
        </mxCell>
        <mxCell id="GmGQLsGv_CHL2gcQ2E9P-21" value="Possui" style="shape=rhombus;double=1;perimeter=rhombusPerimeter;whiteSpace=wrap;html=1;align=center;" vertex="1" parent="1">
          <mxGeometry x="595" y="418" width="120" height="60" as="geometry" />
        </mxCell>
        <mxCell id="GmGQLsGv_CHL2gcQ2E9P-23" value="Data" style="ellipse;whiteSpace=wrap;html=1;align=center;" vertex="1" parent="1">
          <mxGeometry x="-148" y="581" width="100" height="40" as="geometry" />
        </mxCell>
        <mxCell id="GmGQLsGv_CHL2gcQ2E9P-24" value="Hora" style="ellipse;whiteSpace=wrap;html=1;align=center;" vertex="1" parent="1">
          <mxGeometry x="-57" y="623" width="100" height="40" as="geometry" />
        </mxCell>
        <mxCell id="GmGQLsGv_CHL2gcQ2E9P-26" value="&lt;u&gt;Número&lt;/u&gt;" style="ellipse;whiteSpace=wrap;html=1;align=center;fontStyle=4;" vertex="1" parent="1">
          <mxGeometry x="121" y="589" width="100" height="40" as="geometry" />
        </mxCell>
        <mxCell id="GmGQLsGv_CHL2gcQ2E9P-27" value="" style="endArrow=none;html=1;rounded=0;" edge="1" parent="1" source="GmGQLsGv_CHL2gcQ2E9P-26" target="bWxZ85PLtoG299pzbVER-11">
          <mxGeometry relative="1" as="geometry">
            <mxPoint x="-54" y="599" as="sourcePoint" />
            <mxPoint x="31" y="570" as="targetPoint" />
          </mxGeometry>
        </mxCell>
        <mxCell id="GmGQLsGv_CHL2gcQ2E9P-28" value="ÉDublado" style="ellipse;whiteSpace=wrap;html=1;align=center;" vertex="1" parent="1">
          <mxGeometry x="228" y="895" width="100" height="40" as="geometry" />
        </mxCell>
        <mxCell id="GmGQLsGv_CHL2gcQ2E9P-29" value="" style="endArrow=none;html=1;rounded=0;entryX=0;entryY=0.5;entryDx=0;entryDy=0;" edge="1" parent="1" source="bWxZ85PLtoG299pzbVER-12" target="GmGQLsGv_CHL2gcQ2E9P-28">
          <mxGeometry relative="1" as="geometry">
            <mxPoint x="208" y="896" as="sourcePoint" />
            <mxPoint x="368" y="735" as="targetPoint" />
          </mxGeometry>
        </mxCell>
        <mxCell id="vbxpdMbnB_xFIk0R5cCm-4" value="&lt;b&gt;(1,N)&lt;/b&gt;" style="text;strokeColor=none;align=center;fillColor=none;html=1;verticalAlign=middle;whiteSpace=wrap;rounded=0;" vertex="1" parent="1">
          <mxGeometry x="1015" y="523" width="40" height="20" as="geometry" />
        </mxCell>
        <mxCell id="vbxpdMbnB_xFIk0R5cCm-14" value="&lt;b&gt;(1,1)&lt;/b&gt;" style="text;strokeColor=none;align=center;fillColor=none;html=1;verticalAlign=middle;whiteSpace=wrap;rounded=0;" vertex="1" parent="1">
          <mxGeometry x="765" y="523" width="40" height="20" as="geometry" />
        </mxCell>
        <mxCell id="vbxpdMbnB_xFIk0R5cCm-18" value="&lt;b&gt;(1,1)&lt;/b&gt;" style="text;strokeColor=none;align=center;fillColor=none;html=1;verticalAlign=middle;whiteSpace=wrap;rounded=0;" vertex="1" parent="1">
          <mxGeometry x="221" y="518" width="40" height="20" as="geometry" />
        </mxCell>
        <mxCell id="vbxpdMbnB_xFIk0R5cCm-19" value="&lt;b&gt;(1,1)&lt;/b&gt;" style="text;strokeColor=none;align=center;fillColor=none;html=1;verticalAlign=middle;whiteSpace=wrap;rounded=0;" vertex="1" parent="1">
          <mxGeometry x="71" y="638" width="40" height="20" as="geometry" />
        </mxCell>
        <mxCell id="vbxpdMbnB_xFIk0R5cCm-20" value="&lt;b&gt;(1,N)&lt;/b&gt;" style="text;strokeColor=none;align=center;fillColor=none;html=1;verticalAlign=middle;whiteSpace=wrap;rounded=0;" vertex="1" parent="1">
          <mxGeometry x="71" y="753" width="40" height="40" as="geometry" />
        </mxCell>
        <mxCell id="vbxpdMbnB_xFIk0R5cCm-21" value="&lt;b&gt;(1,1)&lt;/b&gt;" style="text;strokeColor=none;align=center;fillColor=none;html=1;verticalAlign=middle;whiteSpace=wrap;rounded=0;" vertex="1" parent="1">
          <mxGeometry x="655" y="388" width="40" height="20" as="geometry" />
        </mxCell>
        <mxCell id="vbxpdMbnB_xFIk0R5cCm-24" value="&lt;b&gt;(1,N)&lt;/b&gt;" style="text;strokeColor=none;align=center;fillColor=none;html=1;verticalAlign=middle;whiteSpace=wrap;rounded=0;" vertex="1" parent="1">
          <mxGeometry x="655" y="478" width="40" height="40" as="geometry" />
        </mxCell>
        <mxCell id="vbxpdMbnB_xFIk0R5cCm-26" value="&lt;b&gt;(1,1)&lt;/b&gt;" style="text;strokeColor=none;align=center;fillColor=none;html=1;verticalAlign=middle;whiteSpace=wrap;rounded=0;" vertex="1" parent="1">
          <mxGeometry x="333" y="335" width="40" height="20" as="geometry" />
        </mxCell>
        <mxCell id="vbxpdMbnB_xFIk0R5cCm-28" value="&lt;b&gt;(1,N)&lt;/b&gt;" style="text;strokeColor=none;align=center;fillColor=none;html=1;verticalAlign=middle;whiteSpace=wrap;rounded=0;" vertex="1" parent="1">
          <mxGeometry x="515" y="513" width="40" height="40" as="geometry" />
        </mxCell>
        <mxCell id="vbxpdMbnB_xFIk0R5cCm-30" value="Sobrenome" style="ellipse;whiteSpace=wrap;html=1;align=center;" vertex="1" parent="1">
          <mxGeometry x="698" y="-18" width="100" height="40" as="geometry" />
        </mxCell>
        <mxCell id="vbxpdMbnB_xFIk0R5cCm-31" value="" style="endArrow=none;html=1;rounded=0;" edge="1" parent="1" source="vbxpdMbnB_xFIk0R5cCm-30" target="5nTaTcytgDCQi_oFWqwc-87">
          <mxGeometry relative="1" as="geometry">
            <mxPoint x="-154" y="-133" as="sourcePoint" />
            <mxPoint x="-94" y="-113.62" as="targetPoint" />
          </mxGeometry>
        </mxCell>
        <mxCell id="vbxpdMbnB_xFIk0R5cCm-32" value="Telefone" style="ellipse;whiteSpace=wrap;html=1;align=center;" vertex="1" parent="1">
          <mxGeometry x="543" y="106" width="100" height="40" as="geometry" />
        </mxCell>
        <mxCell id="vbxpdMbnB_xFIk0R5cCm-33" style="edgeStyle=orthogonalEdgeStyle;rounded=0;orthogonalLoop=1;jettySize=auto;html=1;exitX=0.5;exitY=1;exitDx=0;exitDy=0;" edge="1" parent="1" source="vbxpdMbnB_xFIk0R5cCm-32" target="vbxpdMbnB_xFIk0R5cCm-32">
          <mxGeometry relative="1" as="geometry" />
        </mxCell>
        <mxCell id="vbxpdMbnB_xFIk0R5cCm-34" value="Email" style="ellipse;whiteSpace=wrap;html=1;align=center;" vertex="1" parent="1">
          <mxGeometry x="651" y="84" width="100" height="40" as="geometry" />
        </mxCell>
        <mxCell id="vbxpdMbnB_xFIk0R5cCm-35" value="Endereço&amp;nbsp;" style="ellipse;whiteSpace=wrap;html=1;align=center;" vertex="1" parent="1">
          <mxGeometry x="443" y="-90" width="100" height="40" as="geometry" />
        </mxCell>
        <mxCell id="vbxpdMbnB_xFIk0R5cCm-43" value="&lt;div&gt;Rua&lt;/div&gt;" style="ellipse;whiteSpace=wrap;html=1;align=center;" vertex="1" parent="1">
          <mxGeometry x="310" y="-125" width="90" height="42" as="geometry" />
        </mxCell>
        <mxCell id="vbxpdMbnB_xFIk0R5cCm-44" value="Nº" style="ellipse;whiteSpace=wrap;html=1;align=center;" vertex="1" parent="1">
          <mxGeometry x="388.5" y="-166" width="85" height="37" as="geometry" />
        </mxCell>
        <mxCell id="vbxpdMbnB_xFIk0R5cCm-45" value="Complemento" style="ellipse;whiteSpace=wrap;html=1;align=center;" vertex="1" parent="1">
          <mxGeometry x="487" y="-169" width="100" height="40" as="geometry" />
        </mxCell>
        <mxCell id="vbxpdMbnB_xFIk0R5cCm-46" value="CEP" style="ellipse;whiteSpace=wrap;html=1;align=center;" vertex="1" parent="1">
          <mxGeometry x="595" y="-135" width="100" height="40" as="geometry" />
        </mxCell>
        <mxCell id="wMW3TqFXkwYh79FzsV7t-3" value="" style="endArrow=none;html=1;rounded=0;" edge="1" parent="1" source="vbxpdMbnB_xFIk0R5cCm-35" target="vbxpdMbnB_xFIk0R5cCm-44">
          <mxGeometry width="50" height="50" relative="1" as="geometry">
            <mxPoint x="-74" y="27" as="sourcePoint" />
            <mxPoint x="-24" y="-23" as="targetPoint" />
          </mxGeometry>
        </mxCell>
        <mxCell id="wMW3TqFXkwYh79FzsV7t-4" value="" style="endArrow=none;html=1;rounded=0;" edge="1" parent="1" source="vbxpdMbnB_xFIk0R5cCm-35" target="vbxpdMbnB_xFIk0R5cCm-45">
          <mxGeometry width="50" height="50" relative="1" as="geometry">
            <mxPoint x="-74" y="27" as="sourcePoint" />
            <mxPoint x="-24" y="-23" as="targetPoint" />
          </mxGeometry>
        </mxCell>
        <mxCell id="wMW3TqFXkwYh79FzsV7t-5" value="" style="endArrow=none;html=1;rounded=0;" edge="1" parent="1" source="vbxpdMbnB_xFIk0R5cCm-35" target="vbxpdMbnB_xFIk0R5cCm-46">
          <mxGeometry width="50" height="50" relative="1" as="geometry">
            <mxPoint x="-74" y="27" as="sourcePoint" />
            <mxPoint x="-24" y="-23" as="targetPoint" />
          </mxGeometry>
        </mxCell>
        <mxCell id="wMW3TqFXkwYh79FzsV7t-6" value="" style="endArrow=none;html=1;rounded=0;" edge="1" parent="1" source="vbxpdMbnB_xFIk0R5cCm-35" target="5nTaTcytgDCQi_oFWqwc-87">
          <mxGeometry width="50" height="50" relative="1" as="geometry">
            <mxPoint x="-21" y="-133" as="sourcePoint" />
            <mxPoint x="488" y="-59" as="targetPoint" />
          </mxGeometry>
        </mxCell>
        <mxCell id="wMW3TqFXkwYh79FzsV7t-7" value="" style="endArrow=none;html=1;rounded=0;" edge="1" parent="1" source="vbxpdMbnB_xFIk0R5cCm-32" target="5nTaTcytgDCQi_oFWqwc-87">
          <mxGeometry width="50" height="50" relative="1" as="geometry">
            <mxPoint x="-94" y="67" as="sourcePoint" />
            <mxPoint x="-64" y="-43" as="targetPoint" />
          </mxGeometry>
        </mxCell>
        <mxCell id="wMW3TqFXkwYh79FzsV7t-9" value="" style="endArrow=none;html=1;rounded=0;" edge="1" parent="1" source="vbxpdMbnB_xFIk0R5cCm-34" target="5nTaTcytgDCQi_oFWqwc-87">
          <mxGeometry width="50" height="50" relative="1" as="geometry">
            <mxPoint x="106" y="67" as="sourcePoint" />
            <mxPoint x="156" y="17" as="targetPoint" />
          </mxGeometry>
        </mxCell>
        <mxCell id="wMW3TqFXkwYh79FzsV7t-14" value="" style="endArrow=none;html=1;rounded=0;" edge="1" parent="1" source="vbxpdMbnB_xFIk0R5cCm-43" target="vbxpdMbnB_xFIk0R5cCm-35">
          <mxGeometry width="50" height="50" relative="1" as="geometry">
            <mxPoint x="356" y="67" as="sourcePoint" />
            <mxPoint x="406" y="17" as="targetPoint" />
          </mxGeometry>
        </mxCell>
        <mxCell id="vMut9Y6C_dUNgXhaGjX7-5" value="Funcionário" style="whiteSpace=wrap;html=1;align=center;" vertex="1" parent="1">
          <mxGeometry x="1083" y="768" width="100" height="40" as="geometry" />
        </mxCell>
        <mxCell id="vMut9Y6C_dUNgXhaGjX7-6" value="Nome" style="ellipse;whiteSpace=wrap;html=1;align=center;" vertex="1" parent="1">
          <mxGeometry x="1223" y="768" width="100" height="40" as="geometry" />
        </mxCell>
        <mxCell id="vMut9Y6C_dUNgXhaGjX7-7" value="Sobrenome" style="ellipse;whiteSpace=wrap;html=1;align=center;" vertex="1" parent="1">
          <mxGeometry x="1203" y="695" width="100" height="40" as="geometry" />
        </mxCell>
        <mxCell id="vMut9Y6C_dUNgXhaGjX7-8" value="CPF" style="ellipse;whiteSpace=wrap;html=1;align=center;fontStyle=4;" vertex="1" parent="1">
          <mxGeometry x="923" y="778" width="100" height="40" as="geometry" />
        </mxCell>
        <mxCell id="vMut9Y6C_dUNgXhaGjX7-10" value="Data do início de contrato" style="ellipse;whiteSpace=wrap;html=1;align=center;" vertex="1" parent="1">
          <mxGeometry x="934" y="694" width="119" height="51" as="geometry" />
        </mxCell>
        <mxCell id="vMut9Y6C_dUNgXhaGjX7-16" value="" style="endArrow=none;html=1;rounded=0;entryX=0;entryY=0.75;entryDx=0;entryDy=0;exitX=1;exitY=0.5;exitDx=0;exitDy=0;" edge="1" parent="1" source="vMut9Y6C_dUNgXhaGjX7-8" target="vMut9Y6C_dUNgXhaGjX7-5">
          <mxGeometry width="50" height="50" relative="1" as="geometry">
            <mxPoint x="963" y="1058" as="sourcePoint" />
            <mxPoint x="1013" y="1008" as="targetPoint" />
          </mxGeometry>
        </mxCell>
        <mxCell id="vMut9Y6C_dUNgXhaGjX7-17" value="" style="endArrow=none;html=1;rounded=0;entryX=1;entryY=0.5;entryDx=0;entryDy=0;exitX=0;exitY=0;exitDx=0;exitDy=0;" edge="1" parent="1" source="vMut9Y6C_dUNgXhaGjX7-5" target="vMut9Y6C_dUNgXhaGjX7-10">
          <mxGeometry width="50" height="50" relative="1" as="geometry">
            <mxPoint x="963" y="1058" as="sourcePoint" />
            <mxPoint x="1013" y="1008" as="targetPoint" />
          </mxGeometry>
        </mxCell>
        <mxCell id="vMut9Y6C_dUNgXhaGjX7-19" value="" style="endArrow=none;html=1;rounded=0;entryX=0;entryY=0.5;entryDx=0;entryDy=0;exitX=1;exitY=0;exitDx=0;exitDy=0;" edge="1" parent="1" source="vMut9Y6C_dUNgXhaGjX7-5" target="vMut9Y6C_dUNgXhaGjX7-7">
          <mxGeometry width="50" height="50" relative="1" as="geometry">
            <mxPoint x="963" y="1058" as="sourcePoint" />
            <mxPoint x="1013" y="1008" as="targetPoint" />
          </mxGeometry>
        </mxCell>
        <mxCell id="vMut9Y6C_dUNgXhaGjX7-23" value="Comum" style="whiteSpace=wrap;html=1;align=center;" vertex="1" parent="1">
          <mxGeometry x="950" y="931" width="100" height="30" as="geometry" />
        </mxCell>
        <mxCell id="vMut9Y6C_dUNgXhaGjX7-24" value="Gerente" style="whiteSpace=wrap;html=1;align=center;" vertex="1" parent="1">
          <mxGeometry x="1073" y="931" width="100" height="30" as="geometry" />
        </mxCell>
        <mxCell id="vMut9Y6C_dUNgXhaGjX7-26" value="Administrador" style="whiteSpace=wrap;html=1;align=center;" vertex="1" parent="1">
          <mxGeometry x="1197" y="931" width="100" height="30" as="geometry" />
        </mxCell>
        <mxCell id="vMut9Y6C_dUNgXhaGjX7-34" value="&lt;div&gt;Email&lt;/div&gt;&lt;div&gt;Corporativo&lt;/div&gt;" style="ellipse;whiteSpace=wrap;html=1;align=center;" vertex="1" parent="1">
          <mxGeometry x="1323" y="891" width="100" height="40" as="geometry" />
        </mxCell>
        <mxCell id="vMut9Y6C_dUNgXhaGjX7-36" value="&lt;div&gt;Senha&amp;nbsp;&lt;/div&gt;&lt;div&gt;corporativa&lt;/div&gt;" style="ellipse;whiteSpace=wrap;html=1;align=center;" vertex="1" parent="1">
          <mxGeometry x="1323" y="967" width="100" height="40" as="geometry" />
        </mxCell>
        <mxCell id="vMut9Y6C_dUNgXhaGjX7-42" value="d" style="ellipse;whiteSpace=wrap;html=1;aspect=fixed;" vertex="1" parent="1">
          <mxGeometry x="1113" y="848" width="40" height="40" as="geometry" />
        </mxCell>
        <mxCell id="vMut9Y6C_dUNgXhaGjX7-48" value="" style="shape=link;html=1;rounded=0;entryX=0.5;entryY=1;entryDx=0;entryDy=0;exitX=0.5;exitY=0;exitDx=0;exitDy=0;" edge="1" parent="1" source="vMut9Y6C_dUNgXhaGjX7-42" target="vMut9Y6C_dUNgXhaGjX7-5">
          <mxGeometry width="100" relative="1" as="geometry">
            <mxPoint x="1133" y="888" as="sourcePoint" />
            <mxPoint x="1233" y="888" as="targetPoint" />
          </mxGeometry>
        </mxCell>
        <mxCell id="vMut9Y6C_dUNgXhaGjX7-52" value="" style="endArrow=none;html=1;rounded=0;entryX=0;entryY=1;entryDx=0;entryDy=0;exitX=0.5;exitY=0;exitDx=0;exitDy=0;" edge="1" parent="1" source="vMut9Y6C_dUNgXhaGjX7-23" target="vMut9Y6C_dUNgXhaGjX7-42">
          <mxGeometry width="50" height="50" relative="1" as="geometry">
            <mxPoint x="1133" y="918" as="sourcePoint" />
            <mxPoint x="1183" y="868" as="targetPoint" />
          </mxGeometry>
        </mxCell>
        <mxCell id="vMut9Y6C_dUNgXhaGjX7-53" value="" style="endArrow=none;html=1;rounded=0;entryX=0.5;entryY=1;entryDx=0;entryDy=0;exitX=0.5;exitY=0;exitDx=0;exitDy=0;" edge="1" parent="1" source="vMut9Y6C_dUNgXhaGjX7-24" target="vMut9Y6C_dUNgXhaGjX7-42">
          <mxGeometry width="50" height="50" relative="1" as="geometry">
            <mxPoint x="1133" y="918" as="sourcePoint" />
            <mxPoint x="1183" y="868" as="targetPoint" />
          </mxGeometry>
        </mxCell>
        <mxCell id="vMut9Y6C_dUNgXhaGjX7-54" value="" style="endArrow=none;html=1;rounded=0;entryX=1;entryY=1;entryDx=0;entryDy=0;exitX=0.5;exitY=0;exitDx=0;exitDy=0;" edge="1" parent="1" source="vMut9Y6C_dUNgXhaGjX7-26" target="vMut9Y6C_dUNgXhaGjX7-42">
          <mxGeometry width="50" height="50" relative="1" as="geometry">
            <mxPoint x="1133" y="918" as="sourcePoint" />
            <mxPoint x="1183" y="868" as="targetPoint" />
          </mxGeometry>
        </mxCell>
        <mxCell id="vMut9Y6C_dUNgXhaGjX7-58" style="edgeStyle=orthogonalEdgeStyle;rounded=0;orthogonalLoop=1;jettySize=auto;html=1;exitX=0.5;exitY=1;exitDx=0;exitDy=0;" edge="1" parent="1">
          <mxGeometry relative="1" as="geometry">
            <mxPoint x="1318" y="1098" as="sourcePoint" />
            <mxPoint x="1318" y="1098" as="targetPoint" />
          </mxGeometry>
        </mxCell>
        <mxCell id="vMut9Y6C_dUNgXhaGjX7-60" value="" style="endArrow=none;html=1;rounded=0;entryX=0;entryY=0.5;entryDx=0;entryDy=0;exitX=1;exitY=0;exitDx=0;exitDy=0;" edge="1" parent="1" source="vMut9Y6C_dUNgXhaGjX7-26" target="vMut9Y6C_dUNgXhaGjX7-34">
          <mxGeometry width="50" height="50" relative="1" as="geometry">
            <mxPoint x="983" y="1068" as="sourcePoint" />
            <mxPoint x="1033" y="1018" as="targetPoint" />
          </mxGeometry>
        </mxCell>
        <mxCell id="vMut9Y6C_dUNgXhaGjX7-61" value="" style="endArrow=none;html=1;rounded=0;entryX=0;entryY=0.5;entryDx=0;entryDy=0;exitX=1;exitY=1;exitDx=0;exitDy=0;" edge="1" parent="1" source="vMut9Y6C_dUNgXhaGjX7-26" target="vMut9Y6C_dUNgXhaGjX7-36">
          <mxGeometry width="50" height="50" relative="1" as="geometry">
            <mxPoint x="983" y="1068" as="sourcePoint" />
            <mxPoint x="1033" y="1018" as="targetPoint" />
          </mxGeometry>
        </mxCell>
        <mxCell id="vMut9Y6C_dUNgXhaGjX7-73" value="" style="endArrow=none;html=1;rounded=0;entryX=0;entryY=0.5;entryDx=0;entryDy=0;exitX=1;exitY=0.5;exitDx=0;exitDy=0;" edge="1" parent="1" source="vMut9Y6C_dUNgXhaGjX7-5" target="vMut9Y6C_dUNgXhaGjX7-6">
          <mxGeometry width="50" height="50" relative="1" as="geometry">
            <mxPoint x="843" y="898" as="sourcePoint" />
            <mxPoint x="893" y="848" as="targetPoint" />
          </mxGeometry>
        </mxCell>
        <mxCell id="z9wD751k2yHukbNZcNdd-1" value="&lt;div&gt;Email&lt;/div&gt;&lt;div&gt;Corporativo&lt;/div&gt;" style="ellipse;whiteSpace=wrap;html=1;align=center;" vertex="1" parent="1">
          <mxGeometry x="1001" y="978" width="100" height="40" as="geometry" />
        </mxCell>
        <mxCell id="z9wD751k2yHukbNZcNdd-2" value="&lt;div&gt;Senha&amp;nbsp;&lt;/div&gt;&lt;div&gt;corporativa&lt;/div&gt;" style="ellipse;whiteSpace=wrap;html=1;align=center;" vertex="1" parent="1">
          <mxGeometry x="1161" y="978" width="100" height="40" as="geometry" />
        </mxCell>
        <mxCell id="z9wD751k2yHukbNZcNdd-3" value="" style="endArrow=none;html=1;rounded=0;exitX=0;exitY=1;exitDx=0;exitDy=0;" edge="1" parent="1" source="vMut9Y6C_dUNgXhaGjX7-24" target="z9wD751k2yHukbNZcNdd-1">
          <mxGeometry width="50" height="50" relative="1" as="geometry">
            <mxPoint x="1088" y="1015" as="sourcePoint" />
            <mxPoint x="1048" y="1035" as="targetPoint" />
          </mxGeometry>
        </mxCell>
        <mxCell id="z9wD751k2yHukbNZcNdd-4" value="" style="endArrow=none;html=1;rounded=0;entryX=0.25;entryY=0.05;entryDx=0;entryDy=0;exitX=1;exitY=1;exitDx=0;exitDy=0;entryPerimeter=0;" edge="1" parent="1" source="vMut9Y6C_dUNgXhaGjX7-24" target="z9wD751k2yHukbNZcNdd-2">
          <mxGeometry width="50" height="50" relative="1" as="geometry">
            <mxPoint x="1148" y="961" as="sourcePoint" />
            <mxPoint x="835" y="971" as="targetPoint" />
            <Array as="points" />
          </mxGeometry>
        </mxCell>
        <mxCell id="KKWyHf_L7kKpsniGeiks-10" value="Numero" style="ellipse;whiteSpace=wrap;html=1;align=center;fontStyle=4;" vertex="1" parent="1">
          <mxGeometry x="807" y="586" width="100" height="40" as="geometry" />
        </mxCell>
        <mxCell id="JfyTi-tfxPYS8PUdpwXH-7" value="Quantidade de pontos" style="ellipse;whiteSpace=wrap;html=1;align=center;" vertex="1" parent="1">
          <mxGeometry x="328" y="-61" width="107" height="50" as="geometry" />
        </mxCell>
        <mxCell id="JfyTi-tfxPYS8PUdpwXH-10" value="" style="endArrow=none;html=1;rounded=0;entryX=0;entryY=0;entryDx=0;entryDy=0;" edge="1" parent="1" source="JfyTi-tfxPYS8PUdpwXH-7" target="5nTaTcytgDCQi_oFWqwc-87">
          <mxGeometry relative="1" as="geometry">
            <mxPoint x="-578" y="-18" as="sourcePoint" />
            <mxPoint x="-554" y="25" as="targetPoint" />
          </mxGeometry>
        </mxCell>
        <mxCell id="3_6rnmA6rE0Pt-P0YOCO-1" value="&lt;span style=&quot;border-bottom: 1px dotted&quot;&gt;Número&lt;/span&gt;" style="ellipse;whiteSpace=wrap;html=1;align=center;" vertex="1" parent="1">
          <mxGeometry x="785" y="343" width="100" height="40" as="geometry" />
        </mxCell>
        <mxCell id="3_6rnmA6rE0Pt-P0YOCO-2" value="&lt;span style=&quot;border-bottom: 1px dotted&quot;&gt;Letra&lt;/span&gt;" style="ellipse;whiteSpace=wrap;html=1;align=center;" vertex="1" parent="1">
          <mxGeometry x="729" y="295" width="100" height="40" as="geometry" />
        </mxCell>
        <mxCell id="JfyTi-tfxPYS8PUdpwXH-25" value="Genêro" style="ellipse;shape=doubleEllipse;margin=3;whiteSpace=wrap;html=1;align=center;" vertex="1" parent="1">
          <mxGeometry x="67" y="991" width="100" height="40" as="geometry" />
        </mxCell>
        <mxCell id="JfyTi-tfxPYS8PUdpwXH-36" value="" style="endArrow=none;html=1;rounded=0;" edge="1" parent="1" source="5nTaTcytgDCQi_oFWqwc-112" target="bWxZ85PLtoG299pzbVER-11">
          <mxGeometry relative="1" as="geometry">
            <mxPoint x="127" y="428" as="sourcePoint" />
            <mxPoint x="165" y="413" as="targetPoint" />
          </mxGeometry>
        </mxCell>
        <mxCell id="JfyTi-tfxPYS8PUdpwXH-38" value="Valor" style="ellipse;whiteSpace=wrap;html=1;align=center;" vertex="1" parent="1">
          <mxGeometry x="21" y="116" width="100" height="40" as="geometry" />
        </mxCell>
        <mxCell id="JfyTi-tfxPYS8PUdpwXH-39" value="" style="endArrow=none;html=1;rounded=0;" edge="1" parent="1" source="JfyTi-tfxPYS8PUdpwXH-38" target="5nTaTcytgDCQi_oFWqwc-110">
          <mxGeometry relative="1" as="geometry">
            <mxPoint x="261" y="409" as="sourcePoint" />
            <mxPoint x="421" y="409" as="targetPoint" />
          </mxGeometry>
        </mxCell>
        <mxCell id="JfyTi-tfxPYS8PUdpwXH-42" value="Código" style="ellipse;whiteSpace=wrap;html=1;align=center;fontStyle=4;" vertex="1" parent="1">
          <mxGeometry x="-90.5" y="159" width="100" height="40" as="geometry" />
        </mxCell>
        <mxCell id="JfyTi-tfxPYS8PUdpwXH-43" value="" style="endArrow=none;html=1;rounded=0;" edge="1" parent="1" source="5nTaTcytgDCQi_oFWqwc-110" target="JfyTi-tfxPYS8PUdpwXH-42">
          <mxGeometry relative="1" as="geometry">
            <mxPoint x="317" y="206" as="sourcePoint" />
            <mxPoint x="197" y="116" as="targetPoint" />
          </mxGeometry>
        </mxCell>
        <mxCell id="-8X1UC5WCLzOcuRhwcVl-6" value="Tipo" style="ellipse;whiteSpace=wrap;html=1;align=center;" vertex="1" parent="1">
          <mxGeometry x="735" y="388" width="100" height="40" as="geometry" />
        </mxCell>
        <mxCell id="-8X1UC5WCLzOcuRhwcVl-7" value="" style="endArrow=none;html=1;rounded=0;" edge="1" parent="1" source="-8X1UC5WCLzOcuRhwcVl-6" target="5nTaTcytgDCQi_oFWqwc-75">
          <mxGeometry relative="1" as="geometry">
            <mxPoint x="715" y="373" as="sourcePoint" />
            <mxPoint x="764" y="345" as="targetPoint" />
          </mxGeometry>
        </mxCell>
        <mxCell id="-8X1UC5WCLzOcuRhwcVl-9" value="&lt;u&gt;Tipo&lt;/u&gt;" style="ellipse;whiteSpace=wrap;html=1;align=center;" vertex="1" parent="1">
          <mxGeometry x="-85.5" y="247" width="100" height="40" as="geometry" />
        </mxCell>
        <mxCell id="-8X1UC5WCLzOcuRhwcVl-13" value="Senha" style="ellipse;whiteSpace=wrap;html=1;align=center;" vertex="1" parent="1">
          <mxGeometry x="359" y="101" width="100" height="40" as="geometry" />
        </mxCell>
        <mxCell id="-8X1UC5WCLzOcuRhwcVl-15" value="" style="endArrow=none;html=1;rounded=0;" edge="1" parent="1" source="-8X1UC5WCLzOcuRhwcVl-13" target="5nTaTcytgDCQi_oFWqwc-87">
          <mxGeometry relative="1" as="geometry">
            <mxPoint x="402" y="113" as="sourcePoint" />
            <mxPoint x="562" y="113" as="targetPoint" />
          </mxGeometry>
        </mxCell>
        <mxCell id="-8X1UC5WCLzOcuRhwcVl-16" value="&lt;b&gt;(1,N)&lt;/b&gt;" style="text;strokeColor=none;align=center;fillColor=none;html=1;verticalAlign=middle;whiteSpace=wrap;rounded=0;" vertex="1" parent="1">
          <mxGeometry x="77" y="446" width="40" height="20" as="geometry" />
        </mxCell>
        <mxCell id="-8X1UC5WCLzOcuRhwcVl-18" value="&lt;b&gt;(1,1)&lt;/b&gt;" style="text;strokeColor=none;align=center;fillColor=none;html=1;verticalAlign=middle;whiteSpace=wrap;rounded=0;" vertex="1" parent="1">
          <mxGeometry x="77" y="281" width="40" height="20" as="geometry" />
        </mxCell>
        <mxCell id="-8X1UC5WCLzOcuRhwcVl-19" value="&lt;div&gt;&lt;b&gt;(1,1)&lt;/b&gt;&lt;/div&gt;" style="text;strokeColor=none;align=center;fillColor=none;html=1;verticalAlign=middle;whiteSpace=wrap;rounded=0;" vertex="1" parent="1">
          <mxGeometry x="238" y="201" width="40" height="20" as="geometry" />
        </mxCell>
        <mxCell id="-8X1UC5WCLzOcuRhwcVl-20" value="&lt;b&gt;(1,N)&lt;/b&gt;" style="text;strokeColor=none;align=center;fillColor=none;html=1;verticalAlign=middle;whiteSpace=wrap;rounded=0;" vertex="1" parent="1">
          <mxGeometry x="492" y="116" width="40" height="20" as="geometry" />
        </mxCell>
        <mxCell id="XigQLLr4K7YTHGexGEPw-5" value="Sala" style="whiteSpace=wrap;html=1;align=center;" vertex="1" parent="1">
          <mxGeometry x="612" y="523" width="100" height="40" as="geometry" />
        </mxCell>
        <mxCell id="XigQLLr4K7YTHGexGEPw-6" value="&lt;div&gt;Incorpora&lt;/div&gt;" style="shape=rhombus;perimeter=rhombusPerimeter;whiteSpace=wrap;html=1;align=center;" vertex="1" parent="1">
          <mxGeometry x="865" y="513" width="120" height="60" as="geometry" />
        </mxCell>
        <mxCell id="9I6bxT__7uV0mYLv94IB-1" value="Trabalha em" style="shape=rhombus;perimeter=rhombusPerimeter;whiteSpace=wrap;html=1;align=center;" vertex="1" parent="1">
          <mxGeometry x="1077" y="633" width="120" height="60" as="geometry" />
        </mxCell>
        <mxCell id="9I6bxT__7uV0mYLv94IB-6" value="" style="endArrow=none;html=1;rounded=0;exitX=0.5;exitY=1;exitDx=0;exitDy=0;entryX=0.5;entryY=0;entryDx=0;entryDy=0;" edge="1" parent="1" source="bWxZ85PLtoG299pzbVER-10" target="9I6bxT__7uV0mYLv94IB-1">
          <mxGeometry relative="1" as="geometry">
            <mxPoint x="1042" y="605.67" as="sourcePoint" />
            <mxPoint x="1202" y="605.67" as="targetPoint" />
          </mxGeometry>
        </mxCell>
        <mxCell id="9I6bxT__7uV0mYLv94IB-7" value="" style="endArrow=none;html=1;rounded=0;exitX=0.5;exitY=1;exitDx=0;exitDy=0;entryX=0.5;entryY=0;entryDx=0;entryDy=0;" edge="1" parent="1" source="9I6bxT__7uV0mYLv94IB-1" target="vMut9Y6C_dUNgXhaGjX7-5">
          <mxGeometry relative="1" as="geometry">
            <mxPoint x="1116" y="730" as="sourcePoint" />
            <mxPoint x="1276" y="730" as="targetPoint" />
          </mxGeometry>
        </mxCell>
        <mxCell id="9I6bxT__7uV0mYLv94IB-9" value="&lt;b&gt;(1,N)&lt;/b&gt;" style="text;strokeColor=none;align=center;fillColor=none;html=1;verticalAlign=middle;whiteSpace=wrap;rounded=0;" vertex="1" parent="1">
          <mxGeometry x="1141" y="596" width="40" height="20" as="geometry" />
        </mxCell>
        <mxCell id="lUeTwBlZjx2aC0p4wix5-3" value="Descrição" style="ellipse;whiteSpace=wrap;html=1;align=center;" vertex="1" parent="1">
          <mxGeometry x="-33" y="991" width="100" height="40" as="geometry" />
        </mxCell>
        <mxCell id="lUeTwBlZjx2aC0p4wix5-5" value="" style="endArrow=none;html=1;rounded=0;exitX=0.5;exitY=0;exitDx=0;exitDy=0;entryX=0.5;entryY=1;entryDx=0;entryDy=0;" edge="1" parent="1" source="lUeTwBlZjx2aC0p4wix5-3" target="bWxZ85PLtoG299pzbVER-12">
          <mxGeometry width="50" height="50" relative="1" as="geometry">
            <mxPoint x="330" y="855" as="sourcePoint" />
            <mxPoint x="380" y="805" as="targetPoint" />
          </mxGeometry>
        </mxCell>
        <mxCell id="lUeTwBlZjx2aC0p4wix5-6" style="edgeStyle=orthogonalEdgeStyle;rounded=0;orthogonalLoop=1;jettySize=auto;html=1;exitX=0.5;exitY=1;exitDx=0;exitDy=0;" edge="1" parent="1" source="JfyTi-tfxPYS8PUdpwXH-25" target="JfyTi-tfxPYS8PUdpwXH-25">
          <mxGeometry relative="1" as="geometry" />
        </mxCell>
        <mxCell id="lUeTwBlZjx2aC0p4wix5-8" value="" style="endArrow=none;html=1;rounded=0;entryX=0.25;entryY=1;entryDx=0;entryDy=0;" edge="1" parent="1" source="5nTaTcytgDCQi_oFWqwc-33" target="bWxZ85PLtoG299pzbVER-12">
          <mxGeometry width="50" height="50" relative="1" as="geometry">
            <mxPoint x="330" y="855" as="sourcePoint" />
            <mxPoint x="380" y="805" as="targetPoint" />
          </mxGeometry>
        </mxCell>
        <mxCell id="ydl1SPZMv1hXhZv4hSNk-1" value="&lt;b&gt;(1,1)&lt;/b&gt;" style="text;strokeColor=none;align=center;fillColor=none;html=1;verticalAlign=middle;whiteSpace=wrap;rounded=0;" vertex="1" parent="1">
          <mxGeometry x="1145" y="703" width="40" height="20" as="geometry" />
        </mxCell>
        <mxCell id="ydl1SPZMv1hXhZv4hSNk-2" value="Cartaz" style="ellipse;whiteSpace=wrap;html=1;align=center;" vertex="1" parent="1">
          <mxGeometry x="242" y="800" width="100" height="40" as="geometry" />
        </mxCell>
        <mxCell id="ydl1SPZMv1hXhZv4hSNk-3" value="" style="endArrow=none;html=1;rounded=0;entryX=0;entryY=0.5;entryDx=0;entryDy=0;exitX=1;exitY=0;exitDx=0;exitDy=0;" edge="1" parent="1" source="bWxZ85PLtoG299pzbVER-12" target="ydl1SPZMv1hXhZv4hSNk-2">
          <mxGeometry relative="1" as="geometry">
            <mxPoint x="156" y="869" as="sourcePoint" />
            <mxPoint x="276" y="882" as="targetPoint" />
          </mxGeometry>
        </mxCell>
        <mxCell id="ydl1SPZMv1hXhZv4hSNk-6" value="Fim de Contrato" style="ellipse;whiteSpace=wrap;html=1;align=center;" vertex="1" parent="1">
          <mxGeometry x="1233" y="822" width="114" height="41" as="geometry" />
        </mxCell>
        <mxCell id="ydl1SPZMv1hXhZv4hSNk-7" value="" style="endArrow=none;html=1;rounded=0;entryX=0;entryY=0.5;entryDx=0;entryDy=0;exitX=1;exitY=1;exitDx=0;exitDy=0;" edge="1" parent="1" source="vMut9Y6C_dUNgXhaGjX7-5" target="ydl1SPZMv1hXhZv4hSNk-6">
          <mxGeometry width="50" height="50" relative="1" as="geometry">
            <mxPoint x="1203" y="785" as="sourcePoint" />
            <mxPoint x="1243" y="785" as="targetPoint" />
          </mxGeometry>
        </mxCell>
      </root>
    </mxGraphModel>
  </diagram>
</mxfile>
